#define icon_width 16
#define icon_height 16
static unsigned char icon_bits[] = {
   0x00, 0x00, 0xfe, 0x7f, 0x02, 0x40, 0x52, 0x4a, 0x52, 0x4a, 0x52, 0x4a,
   0xfe, 0x7f, 0x52, 0x4a, 0x52, 0x4a, 0x52, 0x4a, 0x52, 0x4a, 0x52, 0x4a,
   0xfe, 0x7f, 0x02, 0x40, 0xfe, 0x7f, 0x00, 0x00 };